<mxfile host="65bd71144e">
    <diagram id="v9L7fXDK9X60D5y6OTXH" name="Page-1">
        <mxGraphModel dx="1146" dy="607" grid="1" gridSize="10" guides="1" tooltips="1" connect="1" arrows="1" fold="1" page="1" pageScale="1" pageWidth="827" pageHeight="1169" math="0" shadow="0">
            <root>
                <mxCell id="0"/>
                <mxCell id="1" parent="0"/>
                <mxCell id="2" value="" style="shape=image;verticalLabelPosition=bottom;labelBackgroundColor=#ffffff;verticalAlign=top;aspect=fixed;imageAspect=0;image=data:image/png,iVBORw0KGgoAAAANSUhEUgAAAKAAAAFzCAYAAAC5EgIYAAAAAXNSR0IArs4c6QAAAARnQU1BAACxjwv8YQUAAAAJcEhZcwAADsMAAA7DAcdvqGQAACwASURBVHhe7Z17lBXFnccLgQHkIT54+BzwAYqKcNTEaFbkJMFsEiPGPDYx5r1GjbvoUcnmnwD/7D/qIv9Eze7GxEdcs56g4iPq8UFWE3MUQY0vDCrqAAODE2QGZGCcrU/d/s3UNN333rnd99bcy+9zTp/bXV1dVV317V9V9b33V0NaWlp6jKIEYr/os5c9e/ZEe0oxPv74Y1dXPT36/Gah1wJu2LDBrF692gwZMsRV6rRp08xxxx3nIlUD8ujo6HD7+++/vxk6dKjbzwOE8f7775tXX321VyDkceyxx5rDDz/c7LffXs9dL93d3aa9vd2MGzfONDU1RaF7s3XrVvP666+b448/3uzYscNdM2PGDDNs2LAohlIOToAIYdWqVeYTn/iEGTVqlNm9e7d59tlnzQknnGAOOeSQKGq+0NBvvfWWE8MRRxxhRowYEZ3JDgLcuHGj2bZtm5k+fboTBYJBlAceeKBpbm6OYu7Nrl27zAsvvOCERdxSkNemTZvMBx98oAKsACfADz/80KxZs8Z88pOf3EsIb775pmuUE0880VnHdevWuYY9+uij3T5P//bt280BBxxgRo8ebTZv3my6urrMSSedZCZNmmTa2tpcwxPW2dnpGpVzf//7383atWtd2KGHHuosLo1JGI2J9cECI07yI5wHg7wOPvhgM3LkSGe1sXCnnnqqmTx5clTivQU4fPhwJ3jCyBdLyD1xb62tre78UUcdZaZMmWJeeeUV8+6777p6QISE//WvfzW2ntz9U/7TTz/dlZsykRYPMBaQB5Z4PFg7d+50Dy/5Uzdcq+zN0KuvvnoxlU2FYQX5pLtCAFQa59avX9/bwFT61KlT3ZOOABAmG0IbM2aMmT17thMIQhw/frxrHBpr1qxZTmSAxRArhEgRGpYQoU6YMMGlcdBBB7k0Cacc5HXGGWe4NIhH4yIE8qTRDzvsMJceMD4jX0RGPLp30kHAH330kRMcFpH7PO2008zEiRNdfESKCBE5ZeDBIL6I/JhjjnHXkZ6kQTl5uIjHA4jASePkk0926ROPTQWYTO9giKd93rx5rsGwhs8884xrMBEjFUvDAMICwhEijcsnYhXR0kjs84lIsFjEIT0alAbzwZISl0bkc+zYsa7hiIcwSJPrOcfmPyAcDwSEyUaeiBehsy95CaRPeRAoon/55ZddXASeBOUVy8pDy3CGe6d+lGT61QwVyCD97LPPdpWHFaPysC40FMdYN4RQbyAsrDuf3KcPx1h4hOaLhQeFbvvpp5921zHsoH7S4KGYOXOm6xEQMz0KwvVFrfTH1TZd4sqVK53FA8ZQdCtiWRAdXRSNQZc5kO6EypfukHSxNFyPwEmffRoay4hl4TyfWFvKg+UcqIWLQ3p0l9wnFokZLpaTPBEU98RDRTzKgwgpExvDhyOPPNINOygz48o0iEsepMXYj+EE96wCTMcJkCefrveRRx4xDz30kPnDH/7gGodwQAQ0HE84nwOBxsTy/OUvfzGPPfaYs6SM/0iLwTmTAF6X0FAIna7r4YcfdtaD7o+wgQheoNGZTDz66KMuvddee81ZciYViI90t2zZ4u718ccfd2NMLCEbdUF5uZ46oMxPPPGE+eMf/+hEmQb3hNB5g0CaTExkKKEk0++bECwAlo+KjI9bXnrpJSeYYq8w4mDBsJrMsrEICEmsXho0MOIh/3gZqgHCh2LDCsrEvRCnnDJRfq4pda9KbAxI5WLt/ErGej333HNORMwKK4WGoAFLNYjEq4X4gLyKiQ8oU9JDmQbCK+delZgFTKKYVSyFWDMo1cjKvklJRSVZxXIRa6biU9IYYmdtPUw4FKWWMKbmVdWQtra2HmaEilJLeN3Glxu1GekrSgoqQCUoKkAlKCpAJSgNJ0C+Q77zt3eZ+1c8sNcvbpTBR0PNgq+7/gZz5113mcMOPdRs7+hwn3ff9dvorDKYaLhZ8CWXXmbuf+ABs/SG681DD6wwK5943Ozes8ds2LgxiqEMRhpCgD9ftNi839LirN3cc85xYXxzc9KMGaZr1y53rAxO6l6AjPeeXLnSWb7771/hxn6+1RvIr3eU2lPXY0B+w3fh179hrvjJ5eaib37Thb2xdq0TIr/Dmz59Wq9FVAYXMgasawHS9W7ctMn85y03RyF9PL9qlbOG06dNM//w6bPcD1Gz8sYba52olezUvQARwze+9S034WC2mwQiRIBPPvWU2b69w1z0rYKVHCj8/fSll1827777nvn85891aTYyO7qM2VrwGVARo5qMOaTED+frXoA//dnP7A1sM7fc9IsoZG94J/jzxUvMaaee6rrkri7+DdflBIQlI6wYzz+/yo4nN7if8v/f00+bKc1TzAXzz4/ONi7vtRuz5r3ooAKOONCY2UdGBynUtQAZ+33hvC+7iUepMR6TFCwf19x2+x3uL6Vso0fvbzZv3uJ+6zh27BizZ0+3GTZM/vw0xP2PY+TIEWbt2jfN8Kbh5msXXlhSsAOhw07OOxMm6KNHGDOmDCcRrR8WPieN60ur3GtLoQIsAaLihfNDK+53Vq6YMOiGsWB+N00Y1g32dO8xJ0w/3v3fBRAqs2iX7rixbnKTp/CE25415na7xTnlCGOu/2p0kMImK76Lf1UQ3x0/6Evr4jOM+Y7d6gERYF2+hlnx4IOuW4Unn1rpPtOgu2VW7MO1l/74ErddcfnlZsaJMzB6pqOz08w8ZaazmNdec7W59JJLqiI+n2MnGDPPZi8bAtyXqDsBYqHwSjXvs591x9OmHecsWhoIiA2r6fO3LcZc96gx19xjzM3PTTZbR51qzplzth3nNZvlr4x1515835hFVrtYmPg1fGKJsvKpY4y5dl7fhhUjX9J/5NUokoUyECZdb6NQdwJ8/Y033OeZZ37KfR4/fbrrTuky05DZr7ygRjiI6E/rjOEfWW9ZYV1vG/f3q91pJ4BHbeNLHBod8V12Z981L9k4dIPEjcOYjGtk4zgNxm7xuJSP/MlDkDLlIfpSMAPmPivd1rZGCZVB3Qlw1aoXXLfq/0kKgTHbLfa9L3EefPAht0+jM1ZafJ4xN9jx1qVzXHC/BoevzDbmsSsLlummqKe/+aLCNVwLyyPR+hD321acsi3uPwLoB6L349KAodmx24qws/KtsytKqAzqToBr33zTjLcTht8vv9fNam++5Zeue507Z4656eZbzO/uuSdViPxFFEt5jB13MWPEolxqrRpdG8Qt1Zm2exREnNIFiyCxjHG4jq5UNsZ2aTDm8+NSttDs32RnsgdVvpV6B+hTd7PgL3zpPPPFL37R/OSyS6MQY+7+3f+ab3z9a26fMSLfgDDzbd3canbu2One+Z07b54bKzIefKVzmhMQE4DPWXEgPGaRMgO92goMwbEvk4ILbirEu8ZaQx9ee5zlCbVcis1cGfsxJEC4WF/wy8TsV2fBgeB3fkNj/1FGfFhBeeWC4L583pfMP//wh+Zf/+UK5weG3woed+yxbrwo4zYajG62nHdnR0eWabJt9HOj2SqCYNyWN+QBdMfrrIWlvPHhQaNQfwJMmWy4l80tG3rf7y386b+5T+C1y9y555gXVq82Y8eM6e3mfmGtIF1w0vu4OJfbcSJCpftlrMZ1dOEiljyhfKSLxSUfxpAza/h6Zne3tVB2HFfpxvXlMnThwoWL6+mP6fetuN8cbq3cWWeeGYUUoOvFOm7d+oF5w86UJ0yc0PuuEOh63TvDIUPMxf94cq9wZhxqzILPFMaEWDURJ5+z7LFYx4NGGzN3et+3DVz3w08bc/qUwvlKoAslz7iIm4b1desn2Hwus+I/0o6t2KRMxOFazkNaWpWwYZsxf37LmLfbKts+2mPMoYX3+qnU7R/Tf/RjO/br6TH/9ctbopAC8pUbY0REdvdv79zrJfKaF1907tbSfrygFNCv4oqA0K674QZz5+23mRNn9E0v5XeAfEVXznfESjo7bTfaWfBVWhGjhxd+EVOMup2EMLngNcy1dozHT7IExn6ID+Gp+LLhfk5lhxyVbqXE51OXP0Z4Z/16c/lPrnDv+6Q7ZZ8X1Ev/4wbtYuuAuv41DDDp4CW0fA+M1ePHBfFxnzI4qXsBKvVN3Y4BlcZCBagERQWoBEUFqARFBagERQWoBEUFqARFBagERQWoBEUFqARFBagERQWoBEUFqARFBagERQWoBEUFqARFBagERQWoBEUFqARFBagERQWoBEUFqAQl2N8y8QzKJu7NcKyDEx5xDlRrcH1LWXDyUw2PV3Hw90d+S87rf88SjhdWytKoBP1bJg4YcRCJq1ycMOJ6DB94uD6LeymtFbhoI/9a+eFDZGw4QffvWcL3FYK4Z0N8VDLuzX5kNxw+IkasEG7Q+Hwqcvsi1uiZdX1hxH3g5cI+wsVPM42Ix1OOERNCwp0Zrsxw8kh84rTvKJyXvDgvaXNuiE2zq7vPKkn6nJc8BDyTch5LRZrPry/kCf/zfMHBJHmwxcH6cx9s+NMTN28SLo4zyXOFLfuDduOecMsWrxOOeaiJI2Xk2K8XwU+PeqHs5FNrgrpnw88yzh3Tul2xhpyXRVt+fGfkzd4eIx5c2FJ5vrXAkvoWTK4Xl7fkQ6ULXI/TcR4IyiPIdeL6FkQMcg3Hn7uxcM4vB/vgl4u0SNMHJ5fEkXQljoTjepe05Jh9hElc6gyB+vVInQn4qPadneO2F2+w1Bv1KulJ/uRd66FP0C6YCuGppdLwADr/pkJlUkFAZVAxiIUKJxzxcY3fkFirey8rNAgQh4ZjA79RgAaU8+RBA9CA+GEWR+Ls0yDkK+Ij/nKbDwLnmrhn/AutGIhDmTmPRce7vng19UUfR3xOc//k6cN946gS76ykL575sZI+OM2kHi6w5QDqwa8XLCVwP5RP0uNBIk9xuB6CIALk6bvdVoA0/FhbgQiBdThoLGddbDiVw7EIyfdaDzQwlS/hiIq02ZLwz4vg0sQh4Qhe0sPqQPwaGp444kdahCcPS1xYPnSPWCeEIYIXeOBI+2O7j0CxyEkgUupBrFi8XiR/8ei/xtYn6SFkedBDEWwSwiZe4BEj+1SUdIXiopauRLoTEU2l0CjlkiQaGguKCaoS6BEQjf9WABAG3vDviITnW/9KoAcAeg4BkcYf7FoSRIA86f7KRDSoNKqIhMqmwek+GNdhDeQJrxSELPnwAEBao0o4IpChgTwcWcuRxEL7IIrABSkjXSkPalahSLmxqqRHulhusdghCCJA6coYezD+kxWCaADGTwLdMBYB0cj4JguIm7zIMz6mlMbBcz4bZSFP8mbg7nvFl/LnCUKgK/YhL6Drpcvkoc0Clpb74n7YqAuMwWbP6taaIK9h8OwuDc9rBV5T0OXyVMp4CzgnVufKz/RZCOlKSEOEwysUxlOSLsLlHOlixRA4+3i6R1TE8/MTb/O8gjnYlofXImyIAAsonuvxqC/X+HkA5eJeSJtPjrkOz/byekbgWsKwasQBKQN5Ek463PMH9t6AyQPl4z4pG+lznvQpU7F6IT5lkvtnO8rm/0+nV+eBKsWg95LPxIPulxknFcrMtFLkNYyMOZXwDHoHlXQ5iI8nXF4nKI3HoLaAdH2ftl3RQGavSdDd8erBH/MpYVEf0UpQ1Ee0MihQASpBUQEqQVEBKkFRASpBUQEqQVEBKkFRASpBUQEqQUn9JoQ/yjz3TnSgKBWS9hvGkl/F7egy5vHXjZl8gDHDhkaBilImLPu/tcOY82ZGATHKFiAK5vdxijIQ2qz4/vxWaQHqGFAJigpQCYoKUAmKClAJigpQCYoKUAmKClAJigpQCYoKUAlKJgHyNpuNf7krSiVkEuDWrVvNkCFDTEdHh2lvb49Cjfn4YxyKFWhtbY32+ocrCmQSYFNTkxk1apQ58MADnSXs7u42LS0tZtu2bebDDz90vj/YOIdIESzbrl2RExNlnye3MSCWcOjQoU6MgOhGjhzpNpwfIUoEu99++zlxKgrkIkDGgAgL0e3cudMccMABZvjw4dHZAohv9OjRZuzYsWbcuMi9lLLPk0mAPT09rkvlZzX8pGvEiBFOjP54EOHR/SK8trY2ZwkRq6JAJiVMnjzZCW/ChAnO4tEFS5j8xpAuecyYMa4rlnNx66jsu6gpUoKiAlSCogJUgqICVIKiAlSCUncCXLNmTbRXGbwyypqGkh+ZBPjOO++Yc845x8yePdttfsPKuVmzZpnvf//7ruGFG2+80YVPnTrVXHXVVVFogcWLF7tw0rv33nuj0AJPPfWUWbZsmdv3058/f747BvanTJnSb/PL9etf/7r3uFg5OMe1kq5SHTIJELFccMEFZvXq1Wb58uVuX5g7d647T2PTkHKOBkVEiOntt992YTS2fPKVHuGkhyh84SLI888/3+2TPmmSPmJF5EAc8pCN9MaPH+/OAecRblI5ECcg4vXr17t9pcrwx/QkOnf19Nz/Yk9PW0cUkMCTTz7Z097eHh319DQ3N7tjK8ge28hRaAErQneOjeuEW2+9tWfRokVun3ArBrcPc+bM2etY0reWKwotYEXWryxA2t/73veiowJyXbwcS5cu7S0H6QP34+evlM+W7QX9pNHZ2dnT0tLSk0mAPjS2tRxu31qvxIZPakyEKQ3uQ1zOCQhGRI1w4ukjzng6XO/nmXSdEI8LKsDKKVeAuUxCpDuzVsQd+92mwA8U4lx55ZXGCsKNw3xIj+7VCiYKKYz/rMjcflL64IfTndLVWmFFIf27cB8phx9XqQ2ZBYhYGH8xZpMG5DMuEn6E4I/FGB/yPbHt9qKQAqTH+M5a1L3Eg6CAcOL5kL4v5CVLluyVNuNFSUNIK4dSI7J0wXRPdK3xro/u0oqkt/uSeAJjraSukOuIZ61XFNKHfz3E0+dYSBr7+V24kFYOQbvgyqnJGBBR0PCMv2QTMTKo59x3v/td9ynhjA+t7vtdY7tAd852j24y4Z8jPiKQ8aWAyJLSB47jwiGdBQsWREfFyyGoACunXAFmcs8W7waBbla6Ws6zWaH2htE1J43hrGgSz3Ed3S/hjNV8ktIHwkjPhzEem3TBxcohJKWjlEe57tnqwj8gExCEkEUMpBEf/ynVo6H8AyKcrJZIxTc4qQsBKo2LClAJigpQCYoKUAmKClAJigpQCYoKUAmKClAJigpQCYoKUAmKClAJigpQCUrFAsQNG67ZNmzY4D75dcOmTZvUDa8yICoWIC7W+BkXvv74xAsqbtjEA6q44m1vb+/1iCqiVQ+pipBrF4wjSuB3Xohy8+bN7s9IWEcsI8f8/0L8RitKVcaAeEoFrCQWkU8EuGfPHmcRcWSpKFDTSQjCpJvGW4F6SVUgswD9/2KI83H8QYOcwzm5jBUZB7K0gwpQgcwCxPezwETE/5RzfEpXjAVEgIoCNe2CFSWOClAJigpQCYoKUAmKClAJSmYB8q0HXgd8CMM9Gi41isF1xItfD3IO9xhK45JJgIgEV2psAoLhGBe3CNA/54O4xAUv+7hJE/AB85vf/Mad4/okgSoNQhbvWHiswu2ZTSYK6XHeqvBcJeASTVzh4p1KzhHP92g1fvx49xn3hIUXq2Iu1JTBSU08pFpx9PsmBF588cV+jiKt0Hq7Yvy7yDmsnuxjNSUd4pCugBVM8q6qNAa5T0L4sYEvQASF91Kga/XPCXTFSR5KESZdcdwtm9I4VGUWjNUS/P0kGPshSnz3+SA+/ETjdzqrZyxl8JK7ABGTvzAM3e+cyLk4YvNnxhxjHePWTyYfhCdZTKVxyF2AdJd0qYiQ2SuzYfHNxzhPrBniu++++5zXeuKxITwRH9cQn3Bf0EpjkYuHVLzk49VeYILB2A0BpVkxhCpjQ4HuFgHi4d6nubm532saZfDTUC56lfqjoVz0Ko2LClAJigpQCYoKUAmKClAJigpQCYoKUAmKClAJigpQCYoKUAmKClAJigpQCYoKUAmKClAJigpQCYoKUAlKJgHyo0Lx/5yVUj6jcWzJpjQWmQSIx3v8PuN8PKvne9z2JkHaSuOSSYBNTU3OLe/kyZN7LRiCaW1tdeIE1g5h4//CWLAtW7a4OBzjVb+trc194jmf8y0tLS4O57u7u83OnTt7r8XSElfSJIxzpEGapayoMvjIdQzIuiCIApe80jUjIkTK8gyIh/2JEyc6N76cw380bnulG+faCRMmuH2sK47NuRZEgAieOB988IELwyc1aW7fvt3FU+qHXAQo4gGsItshhxzi/EIjDM5jsXw4l4Sflr8vyBIPfEoauuxD/ZJJgF1dXa6r3bhxo/OAj7UaNmyYs1L85RILR9eIZcRBOdaPYwnzhSNiwnIiVs7jzJw0yUPiEsYxcfjbpy/kNFErg5dB9bdMum8mM0nlUeqLuvxbJhaMMaGy7zCoBEg36687ojQ+OmhSgqICVIKiAlSCogJUgpJJgDfeeKPz48c2f/5855ZNmDp1akm/fsRPW8qBKXoaeFOVfGWrFPKh7JWC/0L/vsuBehF3c3xSj2k0+jIVmQRIReKMkgagIvEJKJWJv8BS3k2p3DSh4T+Qxk2CcPIjX9kqhfxxrF4p3MNARUKeOO4EHqa4e2KBdNOWuWgUMnfBeLAX7/cLFiwwK1eudOFYNmkYhIqVwVIhHkQrEEfOiZD4xHsq8dIcU5KnvwnEF6so1lUsDqLGmWYxeIDi5QHKyfWEk0aS6AjjXNJDRVkkXf9a6kMeNIQovQrgI5u05Bqu99PmntIe0rqBb0KSKGedENb6kDVAYOnSpb1resyZM8et+cFmxenWBGlvb3fX2Ap1cRYtWuTOEU688ePHu0+Ip+3T3Nzszkn6XA+EWZH0pmeF2RtOPnKNjx+PNUz88sg1QBwrDrfPfco9cA33IfH9tU8EwrieOGxcK/XEtbJ2CvdlReXiAJ9SNiAuG1BG/9xgoybrhABWiid09uzZZtmyZXs5HOfJx0m5bRz33W3corGOCOG2Mp2/6CTLkgT5Ym3YJE3KgZtf0sDqYS0kPdLnPJ9pUFaul/Jg0QkjLcI4BiyhnzafdJVpww4sKfVCmpJuGhIvCSyk38NwP/VOZgHS+FQwlYGY4pVHQ9F4aRQ7VwwWs7HWyW0y7qRRmPzwIMSFXE4+lNUvP/vixzp+PUMPyQNRcD6tO4zXQaX3LGUjX+q8mJDrhdzGgDy5sr6bD8KUpxYQSbnE0yoFjYIVYsNKDRSsl18+9k855RR3fzS6lIdPJhFi7XjweCAQPtYyDvH88CzjNnoJnLj7+dczmQUo8FTTEP4EAxAgFUUXzSC63Bkn15CWPxHwQWB0SbIBeSECLCID+IFCmjxEWHX2mQhRZu4Na0M3yznCyNO3ZIgUEZJv3PoSl3QZLpBuuXUgFs+f2JAWD0Z8qFO3ZJmEyMRCYF8G7fHBuAzsCbdCcWEc+9fH0yOteDpAeHwT2GdQ75dF8k6Cc34exLNC6k3Dh3OE+/kR5qdNWkl5kRbpcq1fHj4lHz9dgfNc55fFCj8xj8FEuZOQqv8ekCcXiyETBZ5e/oDEYF8ZGFhWrDvjUoYZg5lB83tAuim6UYRHN0TXquKrDARIt9xI9acL1ShVQReqUeoCFaASFBWgEhQVoBIUFaASFBWgEhQVoBKUku8Bx400Zri6XlEGyJ5uY7Z9lGHF9N02gbfaogNFqZDpk6KdGCUFqCjVRL8JUQYFKkAlKCUnIYqShYonISLAaXYQuX9TFKgoZbJtpzFv20lsZgHqz7GUStCfYyl1gQpQCYoKUAmKClAJigpQCYoKUAmKClAJigpQCYoKUAlKJgGyZhtbsbWCkxYcVBQhkwBZTpWv8Vhiq7293YUhOL5mkX3W/2UNOJDlXBVFyKULZr1fERZCxPkQq1myWqasckk4cVhJUwSqKLmNAaWrxRqKwFiiFQHyifVjI15nZ6c7ryi5CBDBicjA/3UNVhAQJiufs2YwK5wrCmQWYGtrqxMeomNxaSwcExOW5AcEh0ARH90wExZ/oWpl3yaTACdNmuQ2xCUgRDaEB4wPESMWUs6xryiQ2xhQUSpBBagERQWoBEUFqARFBagEJRcB+qsI+RAWX7RFKHauWHr+KkPF0kiD+P6qRZWkoeRHJgHScKyAxEo+fMqabcCyDHKO9dv8RmbNEFYdknMiNuKw2hGrDXGtrC0iID7SBUTkpy+iYiUhjmXja0FftCwZIWXxy0FaUg4+WdGIa1WcVYb/BSdRzkpJ559/vlvFB1jJZ4q3fCj7spoPKwDJ6kjsz5o1y+3DokWL3PKnsGDBgt4lUYF4/opA/hKuaen7cJ5wPw1ZRrZYObiGcrB8qn+tUj41Wa5V1k0DFqQRC4LFYUEVNsCq2YZ051mohjXVBP86rBfrzQkshCjngDXWSAtrl5a+D9aOcxKP86wyxHGxchDeCCtR1gOZBEgjCogRAQHdljS6wDENTEPLOeKxepJcR3qcB7pzvmGRPIgr59LS97tL9lml0xc0DwZrF0Oxckg+SvXJZRKCpWFlyYGs4IgYGesx1oqLCQuHIPwlqRAPS5UWw7eAcesHjB/FYgtSDsoeL4dSA7KMAYHVIW3D9RsrEWYbPzoqYK1KvxUfGYtZqxkd9UE61urtNfZivCmrWvJJHB/KIOlzLfnH04hfA2nlAB0DVk5NxoB0Xcwg7YC+n/Wg2+SczEzpTrFG0rXR1TH7jFtMrsEaMQaLWyPGbtId84nlktkt6RNf0mc4ELd+pB3vWtPKodSOTAKk+wRESEOyiegQkbxOoXuW7hTRMDbjU66RdBAO+OkRjzTj4iF9eX1C+rJ8KcJksuKP/SDehRcrh8BrHKW61IV7NiwcApRJQiXImsViRZXqUq57troQoEwu4lZwIJBGluuVgdFQ/gERTlbxqPgGJ3UhQKVxUQEqQVEBKkFRASpBUQEqQVEBKkFRASpBUQEqQVEBKkFRASpBUQEqQclVgOIjUFHKpWIB4u0UN2zr1693n/y6Yfv27SpCZUBULEBxt4ZPQD5xwYb4cESJe15EuXnz5t5PQKT+saLk2gWLh1SEiCjFcSXg0BznlPgNRLSIUVGqMgkRD6jiiFKO6bZ37tzpPA6ok0oFqiLANLB8+IxGiOqmV4HMApw4cWK017c/YcIE9ynH/MF82LBh7hgH5RwzVlSUzCrwhST7aZ+AEP1jZd9GlaAERQWoBEUFqARFBagERQWoBCWzAPHbIj5dBPyt4EYDXys4BUoDF2rE41O8HwD7pCnnlMYlkwARyVVXXWWWLFkShfR5zMIXC35YcPrji0vgWpwDITJ+0IAjIwGHQ3xbwrlly5apCBuZLP4B8aMMNhn3CfhxvvXWW6Ojgt9n8b1sBdl7zoqrn+89fPEBYVwjLF++3MVV6oua+AdM8qOMazTfCylWkDDARRt++wB3auK/D6uJxQPC8IYl0MWLW12l8ch9EsKSrL4jIN9JZNxpJNA9003j7y8OY0lc9cbd6iqNQ1Vmwf7EA4Hh7T4JER+TlbjfPiwf40u8r6pnq8YldwFi5bBcAo7BRVxMLvwJBcLDusW7cgSM+JJc9SqNRS4OKhm/2XGl28dyMQtGVAiJLtROLNw5xCfdMOJjFuyLDzGKVcTFroiPTxk7KvVBTR1U+k6+sXZYLvHrvHr16uhMwSm4Lyp8NiNS2QTx75x0Tmks6sJFr1J/NJSLXqVxUQEqQVEBKkFRASpBUQEqQVEBKkFRASpBUQEqQVEBKkFRASpBUQEqQVEBKkFRASpBUQEqQVEBKkFRASpBySTAbdu2uS0Pf88dHR3RXjJ4VRUf1ErjkEmAnZ2dZvTo0U4Y/B1TQCwCDsvTjtmXTVz2xuNv2LDBHePaV/xKc0w8kOv9a5T6IZMAEQ0eT3G5K1bwvffec47IWaoBWlpa3DEWDpG0tbW5fTzms64Iwu3q6nLXc17i8ynC4zwiQ+hYXK4lHa7hejbC2JT6IrcxIP+MQxCIEuGwsTQD7ngREQ7KEQj/EUawLNcArC8ycuRItw8cc27MmDFOdFg9rKxAmvyHBX/TWGAgTcIQrlJf5CJAxIbAEIssXDN58uRex+SIiQVqRIzw0Ucfuc840rUitCTIy/9U6ptMAkRMrHpEl4pVkzEaYhNrxDm6SLFshHMesJbisByxAt2tiBUxcw3HEhdxy0pM/O3Td3re1NTkPpX6YVD9LROrRjedVB6lvqjLv2ViQbGkyr7DoBIgSHeq7BtoaytBUQEqQVEBKkGpmgDVo1V5MBPcl8kkQHz84cuPDXdr+AWUCsUZpe+oMgl8QePAMgmuTWscfAVKvrJVCg9KFt+DlN/3aV0O3Bt1B7isk/043H9a/TQKmQRIBeEbEDe6NCQvhqUxcEpZqmG5Pk1kOLPEx2AS5IWTc/KVLQssE1Epxe6hGHynDcUETLp4im1kcu2CcTgpHvF5sqUbpoKnTp3qrCJPO5ZSIA7neP8nlY348J7KcXwRnGLQYIiefNjkWiwO65BgKf31SJKgfFxLmfy8xVLKfci9+fDAECdJkH4d+A8W4WLluJb8iQfUE/lQbj6pU79XwaNs2kNaL+QqQCqnubnZ7UsjUHEsNoOnVDZ+tOA3HtYHa8nXdVQmGxXN0gws65AmQBoNobJJo3AtAiMfrCL5Sjk4h+fWJG/8AmlhmbieMvEQSNqIgPOEY33j3T7pIxjixJ2qE0ZaXEvaxBUon19XiIp4IEtZcC984n1WykNcHva4c/d6I7MAaXAqB2FRIXHBIBRc7kqjxB2S+2uAIN4k65EEDeBvgAUhPRpcyiHp0VBxYcThOnEPDJQVH9cIhntkA0lL8uW+qYc0p+pc76dbbNkJ7iENHkweKkCIfpr1SmYBUuk0BGNBGqVUI5crsFLQVSEyNhoG6M6ke6eR/eUhSpUL4uUvdg1p+5YL4Ys44hDPv+9yypIE14kV5GGR+65ncuuCEQTWTroIgQq77777eq2FjHfKYaBiJW8eBBoGSyQD/XKhrFg8gUZGWKRF+eUe+GToQHxg7Etc8vevF4hHFywQt1K4P4ROj5NkbeuN3ATI08mYzV+4EOhSsEZ0UTQEFVcOXMMkJG2GiMhIWzYJ4xo+S002kuAhorskb9JEwKTFvdHwWFfOMf7jXuPQG1Bef4wHpEsaUtZyHwwExsY1In7qsFG6Xwc/x0qinMUKy8UOqqO9nh47CO+xFRodFcdOTNw2EIhPHlmgvH6ZBdImfKBlEiq9Nl4WK8qKy1ArarJYYTnQjWKNsAJ0PViRcp9erAbbQCC+dI2VIpYnDmkTPtAyCZVeK2Vh+IIFZqu0DIONmvwgle6DbgkxUpl0KcrAka496wNWC8r9QaouVKNUBV2oRqkLVIBKUFSASlBUgEpQVIBKUFSASlBUgEpQSr4HVJQsVPwiene3MZvU25mSkSNTHF2UFGC1abXi/tsWYzrU6emgYPI4Y8aMMOaYCVFAlQkiwBffN+bRV415Zp0xnSq8QcloK8KzjjFm3gxjTjkiCqwCNRUglu6mlca8ZAWo1A9Yw8XnFaxj3tRMgL9fXRCfUr985wxjLrZbnogAq/oa5rZnVXyNAO14u92qQdUEWM1CK7WH9qQ3y5uqCJDXNyq+xoPejIlknlRFgNfcE+0oDUfehiV3AfKE8I6vEcjzvdjMKr7SqCW0b55WMHcB8p6v2lw7z5jllxUEUgpmb9fY+Gnwruv2H0QHMS6YbczNF0UHGeC92g1fNeboFDFPGmfMY8kOsioCsZdTN5WSpxXMXYB/WhftVBFEg5VNa9C8oKIvvTM6yAAv3knnrS1RQJVB7LxQrhbrcvwGK1cB1uKrNazJdpsHlpb3U3F4aXrZnILV421+HCwD13H+K9bCFYPuV7pO9kn3WPvJtWz8YcvHz5s85AUueWJNfcibeMRPetHLQyb5+PdRrBzkwzEQJ+n+84A2zmuYlasAazH2o1KXry4IkEbyuxoa8nr79AOWGPGcG2sEzmM5+VaGro+GSoO0Ebzsk/e3rbC4lq8Sl5zXJ1A/b85PtMd8iwBYI78cl9s8P2ePiUedxcsg4uQ8G8MIEXCpchAGjNOq+WMSrGAe5CrAals/GpmnncolLz5pSIFGkK/9EOD1j/ZvBMSEGBavKAhY4pULjc81ci35yyQFkayxx3KevOl6/QcEuAfEJGXg3RqfPk6A9xTC2YjrW/u0clAnkhb3JWIczOQ+BqwmIjDAelHJYqGAfRrDxz/G8sXPD+RJRsy+lWdfBEZ54kJiDBl/KBEKZfDTQagC6bDJ5IkNwZIP4VCsHPVGrgKsdiXQ9Yy1eTDIZsNS0A1L91OJBc7LanPv5dw/Fjg+QUi6Trpf2a6zFnUw/YJIHoas5CpA6Y6qAV0XYrvadk3f/lXfhtUhHLAEvkUEBusCDRk/n9dAHasm5RCwYvGGIh734ovOrzdExkOBZebe2Cg3Vi+vhyUP8jI2uQqQis3ryYhDN0RX5Xc9QAPJbJbxFPkzqMcqMthnMiBI18fkgPOMq/J6aMgbMSM6yZvjeHk5phxMWIhHHP8hQGR03UwsCGfMy/3IPZYDYpXeoRrQznnV29CFCxcuZinVvKACeWLz5oRDjXl+vTHvtUcBETTokQcVLEb7jsK48LQpBUv36iZjHrMCxarIWO85mwbx504vNNTdzxvTNKyQdhw8GdJdcj/s89T78Tgmf8pEHk+tLQiGvLfasvz7w4W/NnDtgaP7JjzEI88vzSykj+CG22M5/5otN/VIWjQ0Zf/vZ/rSKlYOIJ3jbX2Rx+uFhetzRe4xC6yMyprRuf8ekIq74KboQGlI7vhB9p6uar8H5GmkG1IaE7r2PIdZVXkNQyEZJyiNBW2a9O1TFqoiQKwgg2w+lcZA2jT+CikrVREgYKYpsFrC+oc2pC2r8YajagIEZnAUPK8pu1J7eJVTzTas2f+CeV/H6wZefSiDH6wek0n/HWWeBPljOvASlvdUfKfLuys2JTx0r4gOS8d7vmq9xBaCCVBRoCb/C1aUUqgAlaCoAJWgDNm4cWPPyJEjo0NFqQ3d3d1m165dZggLxkVhilJztAtWgqICVIKiAlSCogJUAmLM/wOBmjgjfInrEgAAAABJRU5ErkJggg==;" vertex="1" parent="1">
                    <mxGeometry x="640" y="30" width="160" height="371" as="geometry"/>
                </mxCell>
                <mxCell id="6" style="edgeStyle=orthogonalEdgeStyle;html=1;entryX=0.75;entryY=0;entryDx=0;entryDy=0;" edge="1" parent="1" source="3" target="4">
                    <mxGeometry relative="1" as="geometry"/>
                </mxCell>
                <mxCell id="7" style="edgeStyle=orthogonalEdgeStyle;html=1;entryX=1;entryY=0.5;entryDx=0;entryDy=0;" edge="1" parent="1" source="3" target="5">
                    <mxGeometry relative="1" as="geometry"/>
                </mxCell>
                <mxCell id="9" style="edgeStyle=orthogonalEdgeStyle;html=1;" edge="1" parent="1" source="3" target="8">
                    <mxGeometry relative="1" as="geometry"/>
                </mxCell>
                <mxCell id="21" style="edgeStyle=orthogonalEdgeStyle;html=1;entryX=0.5;entryY=0;entryDx=0;entryDy=0;" edge="1" parent="1" source="3" target="19">
                    <mxGeometry relative="1" as="geometry">
                        <Array as="points">
                            <mxPoint x="540" y="100"/>
                        </Array>
                    </mxGeometry>
                </mxCell>
                <mxCell id="3" value="Symptom Details" style="ellipse;whiteSpace=wrap;html=1;" vertex="1" parent="1">
                    <mxGeometry x="350" y="20" width="80" height="80" as="geometry"/>
                </mxCell>
                <mxCell id="4" value="Nav Bar" style="whiteSpace=wrap;html=1;fillColor=#007FFF;" vertex="1" parent="1">
                    <mxGeometry x="40" y="120" width="120" height="60" as="geometry"/>
                </mxCell>
                <mxCell id="5" value="Title" style="whiteSpace=wrap;html=1;" vertex="1" parent="1">
                    <mxGeometry x="40" y="200" width="120" height="60" as="geometry"/>
                </mxCell>
                <mxCell id="14" style="edgeStyle=orthogonalEdgeStyle;html=1;entryX=0.5;entryY=0;entryDx=0;entryDy=0;" edge="1" parent="1" source="8" target="12">
                    <mxGeometry relative="1" as="geometry"/>
                </mxCell>
                <mxCell id="15" style="edgeStyle=orthogonalEdgeStyle;html=1;entryX=0.425;entryY=0;entryDx=0;entryDy=0;entryPerimeter=0;" edge="1" parent="1" source="8" target="13">
                    <mxGeometry relative="1" as="geometry"/>
                </mxCell>
                <mxCell id="16" style="edgeStyle=orthogonalEdgeStyle;html=1;entryX=0.692;entryY=-0.05;entryDx=0;entryDy=0;entryPerimeter=0;" edge="1" parent="1" source="8" target="11">
                    <mxGeometry relative="1" as="geometry">
                        <Array as="points">
                            <mxPoint x="330" y="250"/>
                            <mxPoint x="183" y="250"/>
                        </Array>
                    </mxGeometry>
                </mxCell>
                <mxCell id="8" value="Symptom Card" style="whiteSpace=wrap;html=1;fillColor=#007FFF;" vertex="1" parent="1">
                    <mxGeometry x="270" y="160" width="120" height="60" as="geometry"/>
                </mxCell>
                <mxCell id="10" value="Async fetch on render to&lt;br&gt;save symtopms from DB to state&lt;br&gt;Array of objects" style="text;html=1;resizable=0;autosize=1;align=center;verticalAlign=middle;points=[];fillColor=none;strokeColor=none;rounded=0;" vertex="1" parent="1">
                    <mxGeometry x="430" y="35" width="190" height="50" as="geometry"/>
                </mxCell>
                <mxCell id="11" value="Date (DB format?)" style="whiteSpace=wrap;html=1;fillColor=default;" vertex="1" parent="1">
                    <mxGeometry x="100" y="280" width="120" height="60" as="geometry"/>
                </mxCell>
                <mxCell id="12" value="Time (DB format?)" style="whiteSpace=wrap;html=1;fillColor=default;" vertex="1" parent="1">
                    <mxGeometry x="240" y="280" width="120" height="60" as="geometry"/>
                </mxCell>
                <mxCell id="13" value="Description" style="whiteSpace=wrap;html=1;fillColor=default;" vertex="1" parent="1">
                    <mxGeometry x="380" y="280" width="120" height="60" as="geometry"/>
                </mxCell>
                <mxCell id="18" value="Map over state" style="text;html=1;resizable=0;autosize=1;align=center;verticalAlign=middle;points=[];fillColor=none;strokeColor=none;rounded=0;" vertex="1" parent="1">
                    <mxGeometry x="340" y="220" width="90" height="20" as="geometry"/>
                </mxCell>
                <mxCell id="22" style="edgeStyle=orthogonalEdgeStyle;html=1;entryX=0.5;entryY=0;entryDx=0;entryDy=0;" edge="1" parent="1" source="19" target="20">
                    <mxGeometry relative="1" as="geometry"/>
                </mxCell>
                <mxCell id="19" value="Add Incident" style="whiteSpace=wrap;html=1;fillColor=default;" vertex="1" parent="1">
                    <mxGeometry x="480" y="160" width="120" height="60" as="geometry"/>
                </mxCell>
                <mxCell id="20" value="Add Incident Form" style="ellipse;whiteSpace=wrap;html=1;fillColor=default;" vertex="1" parent="1">
                    <mxGeometry x="520" y="270" width="80" height="80" as="geometry"/>
                </mxCell>
            </root>
        </mxGraphModel>
    </diagram>
</mxfile>